<svg xmlns="http://www.w3.org/2000/svg" x="0px" y="0px"
	 viewBox="0 0 328.97 434.5" style="enable-background:new 0 0 400 792;" xml:space="preserve">
  <defs>
    <style>
      .cls-1, .cls-2, .cls-3 {
        fill: none;
        stroke: #fff;
        stroke-miterlimit: 10;
      }

      .cls-1 {
        stroke-width: 0.43px;
      }

      .cls-2 {
        stroke-width: 1.5px;
      }

      .cls-3 {
        stroke-width: 0.25px;
      }
    </style>
  </defs>
  <title>eteeController_left</title>
  <g id="Layer_2" data-name="Layer 2">
    <g id="Illustration_Right" data-name="Illustration Right">
      <path class="cls-1" d="M199.7,73.36c-.13-3.27-1.55-4-9.32-1.6-8.43,2.59-19.7,3.06-27.11,9.9-7,6.5-9.92,23.91.81,32.3,10.45,8.17,35.21,4.54,35.09-4"/>
      <path class="cls-1" d="M199.21,125c-.09-2.07-2.87,3.89-14.06,6.86-16,4.24-23.23,3.79-30.45,9.74-8.33,6.88-9.3,23.65,1.71,32.66,10.37,8.48,47.29,1.24,47.15-7.34"/>
      <path class="cls-1" d="M198.93,194.24c.18-2.07-1,.52-11.3,1.26-17.09,1.23-21.36,1-29.86,4.87-11.77,5.41-15.7,33.83,4.42,38.39,12.53,2.84,36.5,1.47,36.9-2.7"/>
      <path class="cls-1" d="M199.15,257.12c0-3-3.92,1-14.14,2.71-16.9,2.82-22.55,3.79-29.59,8.66-10.65,7.38-10.13,36,10.46,37.17,16.42.9,33.46-2.45,33.48-6.63"/>
      <path class="cls-1" d="M199.46,321.67c.13-3.57-4.24.82-14.45,2.52-16.9,2.82-22.55,3.79-29.59,8.66-10.65,7.38-10.13,36,10.46,37.17,16.42.9,33-2.72,33.06-6.9"/>
      <path class="cls-2" d="M106,367.09c0,12.51-.48,31.62,1.44,44a24.46,24.46,0,0,1,0,6c-1,8.21,3.15,14,12.09,15.92,7.87,1.71,17,.28,24.49-1.89,19.81-6.9,33.65-15.28,46.14-28.28,4.63-5.47,8.63-11.91,7.75-19-.94-7.61,1-14.92,1.09-22.38,0-2.54.58-5.09.59-7.63.06-23-.32-39.9-.19-72.4-.52-33.9-.11-60.9-.53-93,0-3.59-.23-6.85,2.74-9.58,3.17-2.55,3.36-12.38-.58-18.69a18.38,18.38,0,0,1-2.14-9.39c0-11.3.46-19.24.3-30.54,0-3.66-.76-5.19,2.62-5.14,11.57.15,24.8.07,36.37.27,5.18.09,9.51-.86,13.43-4.06,4.78-3.9,8.77-8.15,14.21-11.23A24.66,24.66,0,0,1,277.12,97c10.9.11,22.59-.41,33.47,0a9.16,9.16,0,0,0,4.07-.76c3.45-1.51,5.86-5,7.68-8.42,4.25-8,4.73-12.92,5.55-21.79a74.36,74.36,0,0,0-5.65-36.31c-2.83-6.68-5.49-9.68-8.41-9.74-8.86-.18-24.46,0-34.24,0-13.19,0-16.9-5.85-27.1-13.87-5.36-3.9-6.29-5.37-15-5.37-15.39,0-41.12.53-56.59.41-6.43,0-12.29,1.4-17.29,5.52-11.79,9.75-21.39,13.45-40.55,13.15-27.44-.43-54.89,0-82.34.07a50.91,50.91,0,0,0-18.21,3C7.47,28.61.11,43.67.79,59.64,1.29,71.22,6,81.47,14.33,88.6c7.87,6.76,21.9,7.86,31.85,7.94,19.58-.07,35.07-.49,54-.48,6,0,6-1.21,6,4.91,0,47.22-.24,98.38-.24,145.6C106,246.57,106,324.44,106,367.09Z"/>
      <path class="cls-1" d="M239.29,76.62v0c-4.93,0-9.87.2-14.78,0A18.67,18.67,0,0,1,206.93,58c-.07-9.73,7.56-18.55,17.22-19,9.84-.44,19.72-.44,29.56,0,9.47.43,15.89,9,15.67,20-.21,10-7,17.3-16.57,17.61C248.3,76.74,243.8,76.62,239.29,76.62Z"/>
      <path class="cls-1" d="M270.17,57.93a8.07,8.07,0,0,0,7.89,8.39c3.84,0,6-4.55,6-8.39s-1.76-8.16-6.54-8.16C273.69,49.76,270.17,53.82,270.17,57.93Z"/>
      <path class="cls-1" d="M271.11,58c0,4.21,4.36,7.08,6.94,7.08,4,0,5.66-3.77,5.66-7.19S282,51,277.41,51C274.76,51,271.11,54.38,271.11,58Z"/>
      <path class="cls-2" d="M126.82,84.72a45.8,45.8,0,0,1-10.33-.9c-.79-.29-1.67-.07-1.78.77s.27,19.24.27,22.55.95,30.31,1.49,37.48,1.62,21.85,2.84,27.74,3.45,21,3.52,29.3.14,9.95.18,10.78,1.54,1.77,1.58-.61-.7-7.26,2.46-21.19c3.31-14.62,7.79-30.67,8.71-36.94a458.4,458.4,0,0,0,4.84-64.82c-.1-4.3.58-5.52-2.2-5.22S129.7,84.63,126.82,84.72Z"/>
      <path class="cls-1" d="M112.3,75.07a184.84,184.84,0,0,0-.72,28.15c.63,14.52,4,47.63,4.69,51.15s2.07,11.37,2.07,11.37"/>
      <path class="cls-1" d="M123.77,213.33c1.41,0,1.45-3.11,1.49-6.08,0-3.77,1.29-9.49,1.85-13.35,1-6.8,8.83-36.29,11.15-48.54,3.45-18.18,5.28-56.29,5.41-61.23a48.58,48.58,0,0,1,1-8.67"/>
      <path class="cls-1" d="M127.16,116.34c-.23-2.5-.38-6.67-.82-11.13-.23-2.34-.87-3.25-2.36-3.25-2.07,0-2.27,2.91-1.83,6.56.52,4.29.58,7.81.58,7.81"/>
      <path class="cls-1" d="M272,58.07c-.08,2.23,1.93,6,5.55,6,3.15,0,4.84-2.74,4.84-6,0-2.66-1.66-6-5-6C275.27,52.05,272.16,54.23,272,58.07Z"/>
      <path class="cls-1" d="M197.67,380.62c-1.82,15.12-27.35,35.93-56.09,43.44-21.25,5.55-30,3.73-34-9.21"/>
      <path class="cls-1" d="M314.65,96.26c10.55-12.4,12.17-59.08.17-76.13"/>
      <path class="cls-1" d="M199.17,113c39,0,50.11-10.65,61.75-16,7.82-3.62,28.31-2.7,40.93-2.26,11.71.41,11.37,1.22,14.43-5.6,7.24-16.12,3.18-55.25-.83-65.15-1.62-4-4.77-2-30.94-2.11C257,21.75,252.13,12,236.43,7.26a82.49,82.49,0,0,0-21.92-4c-12.74-.46-21.92-.06-32.93.18-13.26.29-27.56,15-41.23,16.74-11,1.41-63.78,2.26-100.75,2.23-18.39,0-18.3,19.61-18.33,35.94,0,15.61-1.4,31.82,14.34,34.91,16.78,3.3,67,1.08,70.64,1.08"/>
      <path class="cls-1" d="M106.22,101c-.06-8.48-.33-28.33,2.11-35.18"/>
      <path class="cls-1" d="M199.16,116.68c-.09-26.66,2.36-75.89-2.32-87.48"/>
      <path class="cls-1" d="M310.41,21.5c-5.14,4.31-8.57,11.35-8.57,36.7,0,9.11.9,35.46,10,36.6"/>
      <path class="cls-3" d="M204.77,33.12c9.47-.42,18.2-.48,19.94-.52,1.9,0,7.94-.9.27-.67s-14.21.64-16.68,1"/>
      <path class="cls-3" d="M229.67,32.87c2,0,3.52,1.06-8.39,1s-16.51,0-16.51,0"/>
      <path class="cls-3" d="M228.76,32c.94.77,2.23,1.11-.92,1.31-2.06.14-9.07.51-11.57.51"/>
      <path class="cls-1" d="M199.17,92.3C206,90.5,205,78.87,205,58c-.08-27.21,2-34.74-6.84-37.26-4.87-1.39-16.18-.91-16.18-.91"/>
      <path class="cls-1" d="M125.06,42.86c-26.12,22.91-17.81,34.1-2.3,34.82,26.62,1.24,47.41-12.32,57.38-20.3,28.95-23.18,14.3-35.67,5.48-37.16C165.79,16.88,133,35.93,125.06,42.86Z"/>
      <path class="cls-1" d="M122.31,147.53c-.27,2.64-1.23,10.78-1.2,11.19.41,4.13,4.17,4.08,4.58-.16.13-1.31.38-4.06,1-11,0,0,.24,10-.07,11.71a3,3,0,0,1-3.2,2.53"/>
      <path class="cls-3" d="M106.18,95.23c-48.78.41-53.92.54-64.07,0-20-1.06-38.3-9.07-38.3-37,0-16.76,7.71-36.92,35.18-37.19s79.7.24,82.13.15"/>
      <path class="cls-1" d="M124,102c1.69,0,3.28.71,3.32,3.42s-.14,10.79-.14,10.79"/>
    </g>
  </g>
</svg>
