<?xml version="1.0" encoding="utf-8"?>
<!-- Generator: Adobe Illustrator 25.4.1, SVG Export Plug-In . SVG Version: 6.00 Build 0)  -->
<svg version="1.1" xmlns="http://www.w3.org/2000/svg" xmlns:xlink="http://www.w3.org/1999/xlink" x="0px" y="0px"
	 viewBox="0 0 191.43 366.12" style="enable-background:new 0 0 191.43 366.12;" xml:space="preserve">
<style type="text/css">
	.st0{fill:none;stroke:#FFFFFF;stroke-width:0.75;stroke-linecap:round;stroke-linejoin:round;}
	.st1{fill:none;stroke:#FFFFFF;stroke-width:0.25;stroke-linecap:round;stroke-linejoin:round;}
	.st2{fill:none;stroke:#FFFFFF;stroke-width:0.5;stroke-linecap:round;stroke-linejoin:round;}
	.st3{fill:none;}
</style>
<g id="Main_curve">
	<path class="st0" d="M35.03,252.38c4.98,10.28,10.76,19.91,17.24,28.88c3.24,4.49,6.65,8.81,10.26,12.98
		c3.6,4.17,7.39,8.18,11.32,11.98c18.52,17.9,40.65,31.61,65.08,38.44c11.83,3.31,24.19,4.98,36.78,4.67
		c-0.01-1.02-0.03-2.2-0.06-3.53c-3.2-1.95-6.32-4.05-9.66-5.75c-7.41-3.78-15.31-6.53-23.32-8.77c-5.19-1.45-10.3-3.27-15.29-5.4
		c-15.98-6.85-30.83-17.06-43.73-29.51c-0.52,0.02-1.04,0.04-1.56,0.06c-3.02-3.53-6.5-8.4-9.11-12.23
		c-2.86-4.21-5.6-8.49-8.23-12.85c-2.63-4.36-5.14-8.77-7.53-13.27c-2.54-4.78-4.48-8.77-6.83-13.64
		c-3.72-7.74-6.72-15.43-9.26-23.62c-2.5-8.04-4.5-16.39-6.02-24.67c-1.52-8.22-2.66-16.85-3.23-25.19
		c-0.55-7.98-0.68-17.39,0.52-25.36c3.05-20.27,9.44-40.04,18.92-58.21c0.5-0.95,1-1.9,1.51-2.84
		c6.22-11.41,13.69-22.17,22.41-31.81c0.96-1.06,3.09-3.13,4.11-4.13c1.39-1.36,2.76-2.73,4.09-4.15
		c7.17-7.69,12.23-14.98,15.3-20.21c0.91-1.56,1.62-2.89,2.7-5.12c0.75-1.67,1.12-2.55,1.38-3.29c0.1-0.27-0.02-0.57-0.28-0.7
		c-0.73-0.36-1.46-0.73-2.19-1.09C90.23,20.18,81,27.34,72.62,35.45C58.23,49.38,46.33,66.1,37.22,84.47
		c-9.12,18.37-15.45,38.4-18.55,59.05c-1.57,10.47-2.32,20.76-2.15,31.51c0.04,2.41,0.14,4.81,0.27,7.21
		c0.11,2.03,0.31,5.17,0.5,7.2c0.15,1.61,0.32,3.21,0.51,4.81c0.6,5,1.44,10.11,2.49,15.13c1.05,5.02,2.31,9.96,3.77,14.83
		c1.46,4.87,3.12,9.68,4.96,14.39C30.86,243.32,32.88,247.93,35.03,252.38z"/>
	<path class="st0" d="M83.65,44.63c7.19-7.71,12.27-15.02,15.34-20.26c0.92-1.56,1.63-2.9,2.71-5.14c0.71-1.56,1.07-2.45,1.33-3.16
		c0.12-0.32,0.48-0.46,0.78-0.31c5.15,2.56,10.29,5.11,15.44,7.67c-1.89,3.92-2.83,8.03-2.97,12.36c-0.07,2.15,0.06,4.26,0.35,6.39
		c0.14,1.06,0.33,2.11,0.55,3.15c0.1,0.49,0.21,0.99,0.33,1.47c0.13,0.55,0.28,1.09,0.41,1.64c0.47,1.6,0.97,3.18,1.54,4.74
		c0.43,1.16,0.9,2.3,1.38,3.43c0.29,0.67,0.59,1.34,0.89,2.01c0.53,1.15,1.09,2.29,1.67,3.41c2.27,4.36,4.86,8.48,7.71,12.49
		c1.5,2.11,3.06,4.17,4.68,6.2c0.8,1,1.61,2,2.45,2.97c0.67,0.78,1.35,1.54,2,2.33c0.76,0.92,1.52,1.84,2.29,2.75
		c2.38,2.84,4.81,5.63,7.26,8.4c2.14,2.42,4.3,4.81,6.49,7.19c0.33,0.36,0.8,0.85,1.1,1.24c0.23,0.31,0.49,0.7,0.42,1.14
		c-0.07,0.42-0.42,0.76-0.67,1.04c-0.19,0.2-0.38,0.41-0.56,0.61c-0.23,0.25-0.46,0.51-0.69,0.76c-3.07,3.43-5.7,7.07-7.94,11.09
		c-0.75,1.35-1.45,2.71-2.06,4.12c-0.33,0.76-0.64,1.54-0.94,2.31c-0.33,0.88-0.65,1.76-0.95,2.65c-0.15,0.43-0.29,0.85-0.43,1.28
		c-0.35,1.08-0.66,2.17-0.95,3.28c-1.22,4.75-1.83,9.63-1.83,14.53c0,1.85,0,3.71,0,5.56c0,4.34-0.02,20.33-0.09,24.67
		c-0.01,0.31-0.26,0.56-0.57,0.56c-6.24,0-12.48,0-18.72,0c-0.36,1.03-0.73,2.06-1.09,3.08c-5.27,0-10.54,0-15.81,0
		c0-10.59,0-21.19,0-31.78c0-4.7-3.81-8.5-8.5-8.5c-4.7,0-8.5,3.81-8.5,8.5c0,10.74,0,21.48,0,32.22c-1.12,0.22-2.22,0.48-3.32,0.81
		c-1.05,0.31-2.07,0.68-3.08,1.13c-1.76,0.78-3.35,1.73-4.83,2.96c-1.39,1.16-2.54,2.47-3.55,3.98c-0.43,0.66-0.83,1.33-1.18,2.03
		c-0.22,0.44-0.42,0.88-0.62,1.33c-0.1,0.24-0.21,0.48-0.3,0.72c-0.31,0.75-0.56,1.52-0.79,2.3c-0.92,3.1-1.38,6.46-1.59,9.67
		c-0.32,4.96-0.09,10.03,0.54,14.95c1.04,8.16,3.2,16.29,6.18,23.93c1.47,3.76,3.14,7.41,5.01,10.99c1.97,3.76,4.14,7.38,6.52,10.9
		c4.63,6.85,10,13.17,15.93,18.92c5.98,5.79,12.4,10.87,19.34,15.45c6.96,4.59,14.12,8.46,21.73,11.86
		c3.84,1.72,7.73,3.3,11.68,4.74c2.34,0.86,4.7,1.66,7.07,2.43c0.99,0.32,1.99,0.64,2.99,0.94c0.5,0.15,1,0.3,1.5,0.45
		c2.35,0.7,4.7,1.35,7.07,1.97c1.35,7.88,1.71,15.09,1.84,20.26c-1.43-0.88-2.15-1.38-3.15-2.03c-1.25-0.81-2.93-1.83-5.17-3.01
		c-0.37-0.19-0.77-0.4-1.21-0.63c-2.29-1.17-5.57-2.71-10.18-4.48c-2.89-1.11-5.54-1.98-7.76-2.68c-2.22-0.7-4.03-1.24-5.42-1.63
		c-5.18-1.45-10.27-3.26-15.26-5.39c-15.96-6.83-30.76-17.02-43.76-29.57c-0.47,0.02-0.95,0.03-1.42,0.05
		c-3.04-3.5-6.52-8.34-9.13-12.15c-2.86-4.19-5.59-8.46-8.21-12.8c-2.62-4.34-5.12-8.75-7.5-13.23c-2.51-4.73-4.49-8.77-6.81-13.6
		c-3.72-7.72-6.71-15.4-9.25-23.58c-2.49-8.03-4.49-16.36-6.02-24.63c-1.52-8.2-2.65-16.82-3.22-25.15
		c-0.55-7.97-0.68-17.36,0.52-25.32c0.73-4.84,1.63-9.57,2.72-14.27c1.09-4.7,2.36-9.37,3.81-13.96c2.89-9.2,6.48-18.11,10.7-26.62
		c0.54-1.1,1.1-2.19,1.67-3.27c0.5-0.95,1-1.89,1.51-2.83c3.43-6.3,7.23-12.35,11.36-18.09c2.73-3.79,5.6-7.45,8.6-10.93
		c0.79-0.92,1.6-1.83,2.41-2.73c0.96-1.06,3.09-3.13,4.11-4.13C80.95,47.42,82.33,46.05,83.65,44.63z"/>
</g>
<g id="decoration_line">
	<line class="st1" x1="60.99" y1="196.96" x2="33.8" y2="186.35"/>
	<path class="st1" d="M100.78,14.25c-0.07,0.19-0.14,0.38-0.21,0.57c-0.12,0.33-0.25,0.66-0.39,0.99c-0.47,1.14-1,2.24-1.56,3.33
		c-0.91,1.76-1.9,3.46-2.94,5.15c-1.34,2.17-2.76,4.29-4.24,6.37c-1.8,2.52-3.68,4.98-5.71,7.33c-1.05,1.21-2.13,2.39-3.25,3.54
		c-1.47,1.51-1.94,1.91-3.43,3.4c-8.97,8.91-16.77,18.91-23.43,29.63c-13.3,21.42-22.06,45.75-25.8,70.65
		c-1.56,13.89-1.32,27.74,0.47,41.58c1.78,13.75,5.07,27.38,9.51,40.5c4.42,13.06,10.12,26.02,16.82,38.08
		c6.64,11.93,14.74,23.84,24.07,33.9c3.15,3.04,6.71,6.25,10.17,8.94c1.91,1.48,3.5,2.59,5.53,3.89c1.91,1.22,3.85,2.4,5.78,3.59
		c1.92,1.18,3.84,2.38,5.77,3.57c1.92,1.18,3.86,2.32,5.83,3.42c3.96,2.19,8,4.18,12.16,5.97c4.16,1.79,8.38,3.35,12.71,4.69
		c1.08,0.33,2.16,0.65,3.25,0.96c0.57,0.16,1.14,0.33,1.71,0.49c0.56,0.16,1.11,0.32,1.67,0.48c2.32,0.67,4.08,1.19,6.36,1.98
		c2.21,0.76,4.4,1.58,6.58,2.45c2.02,0.81,4.02,1.66,5.99,2.59c1.5,0.7,2.99,1.44,4.42,2.27c1.03,0.59,2.03,1.22,3.01,1.88
		c0.94,0.63,1.86,1.27,2.77,1.94c0.44,0.32,0.88,0.65,1.32,0.98"/>
	<path class="st1" d="M140.81,86.7c-8.36,5.83-15.94,12.93-22.05,21.16c-8.08,10.89-13.59,23.75-16.49,36.9"/>
	<path class="st1" d="M127.85,155.9c-2.98,5.34-6.19,10.57-9.65,15.61c-2.04,2.96-4.16,5.85-6.3,8.74
		c-0.51,0.68-1.01,1.37-1.52,2.05"/>
	<polyline class="st1" points="49.96,243.51 47.52,247.06 35.03,252.38 	"/>
	<line class="st1" x1="32.47" y1="147.18" x2="87.49" y2="155.58"/>
	<line class="st1" x1="82.4" y1="45.55" x2="72.62" y2="35.45"/>
	<path class="st1" d="M140.77,155.9c-12.09,0-24.18,0-36.27,0"/>
	<line class="st1" x1="140.77" y1="155.9" x2="104.5" y2="155.9"/>
	<line class="st1" x1="62.52" y1="225.24" x2="50.14" y2="243.24"/>
	<line class="st1" x1="71.49" y1="193.76" x2="60.07" y2="189.48"/>
	<polyline class="st1" points="33.5,186.24 30.05,184.89 17.03,186.16 	"/>
	<path class="st1" d="M119.25,23.43c-1.58,0.93-3.17,1.84-4.79,2.71c-1.13,0.61-2.25,1.22-3.37,1.84c-2.89,1.62-5.71,3.34-8.47,5.18
		c-3.62,2.41-7.1,4.98-10.45,7.76c-1.61,1.34-3.19,2.7-4.75,4.1c-0.55,0.49-1.09,0.98-1.63,1.47c-0.24,0.22-0.48,0.45-0.72,0.67
		c-3.92,3.69-7.54,7.63-11,11.75C69.93,63.85,66.13,69,62.6,74.39c-3.52,5.4-6.72,10.95-9.61,16.72
		c-2.89,5.76-5.37,11.66-7.59,17.71c-2.18,5.94-4.2,12.26-5.83,18.37c-0.9,3.34-1.7,6.7-2.35,10.1c-0.3,1.55-0.56,3.11-0.77,4.67
		c-0.19,1.39-0.33,2.78-0.4,4.18c-0.22,1.49-0.41,2.96-0.32,4.47c0.1,1.62,0.48,3.1,1.14,4.58c0.74,1.66,1.72,3.13,2.82,4.56
		c0.57,0.74,1.17,1.46,1.77,2.17c0.57,0.67,1.15,1.33,1.72,2.01c0.52,0.62,1.04,1.25,1.57,1.87c1.88,2.2,3.79,4.37,5.62,6.61
		c1.88,2.31,3.67,4.66,5.27,7.19c1.79,2.83,3.23,5.73,4.19,8.97c0.48,1.63,0.82,3.27,0.99,4.96c0.09,0.84,0.11,1.68,0.15,2.52
		c0.04,0.84,0.07,1.68,0.11,2.52c0.35,7.71,0.67,12.31,1.09,20.02c0.09,1.67,0.18,3.34,0.27,5.01c0.1,1.87,0.19,3.15,0.39,5.02
		c0.35,3.32,0.87,6.61,1.44,9.89c1.15,6.59,2.57,13.1,4.37,19.56c0.87,3.13,1.82,6.23,2.86,9.3c1.1,3.26,2.31,6.46,3.67,9.62
		c1.33,3.07,2.79,6.04,4.5,8.92c1.71,2.87,3.66,5.64,6.04,8.03c2.31,2.42,6.62,6.17,9.19,8.29c3.18,2.63,6.46,5.12,9.85,7.48
		c3.39,2.36,6.86,4.57,10.46,6.6c3.6,2.04,7.28,3.86,11.08,5.51c7.12,3.09,15.87,6.04,23.6,7.25c1.19,0.19,2.38,0.34,3.58,0.43
		c0.57,0.05,1.13,0.08,1.7,0.1c0.27,0.01,0.55,0.01,0.82,0.02c0.13,0,0.27,0,0.4,0c0.07,0,0.13,0,0.2,0
		c1.89-0.03,3.76-0.16,5.63-0.4c1.51-0.2,2.99-0.46,4.47-0.85c1.1-0.29,2.16-0.63,3.21-1.07c0.7-0.29,1.38-0.63,2.05-0.97
		c0.23-0.12,0.47-0.24,0.7-0.37c0.4-0.24,0.77-0.5,1.15-0.75"/>
	<polyline class="st1" points="18.27,146.26 29.64,146.75 32.19,147.14 	"/>
	<path class="st1" d="M142.14,130.03c-0.67-1.12-1.34-2.25-2.01-3.37c-0.58-0.97-1.24-2.08-1.98-3.32c-0.4-0.68-1.06-1.78-1.98-3.32
		c-1.65-2.77-2.96-4.98-3.95-6.64c-1.5-2.51-2.81-4.73-3.95-6.64c-0.44-0.73-1.1-1.84-1.98-3.32c-0.87-1.46-1.53-2.57-1.98-3.32
		c-2.58-4.34-5.58-9.07-9.05-14.16c0,0-0.79-1.16-2.39-3.44c-1.6-2.28-4.02-5.69-7.38-10.11c-4.93-6.48-8.48-10.68-10.36-12.88
		c-2.15-2.52-4.13-4.76-5.92-6.73c-1.79-1.97-3.4-3.67-4.73-5.05c-0.63-0.65-1.27-1.31-1.9-1.96"/>
	<path class="st1" d="M140.73,176.82c-3.96-0.53-7.96-1.05-11.68-2.23c-0.37-0.12-0.74-0.25-1.11-0.38
		c-1.4-0.51-2.73-1.16-3.63-2.22c-0.68-0.79-0.96-1.85-0.81-2.93c0.15-1.1,0.65-2.19,1.21-3.23c0.64-1.2,1.39-2.37,2.14-3.55
		c0.82-1.3,1.63-2.59,2.39-3.92c0.81-1.42,1.58-2.86,2.31-4.33c5.37-10.75,8.48-22.43,15.61-32.36"/>
	<line class="st1" x1="62.52" y1="225.24" x2="50.14" y2="243.24"/>
</g>
<g id="Button">
	<path class="st2" d="M122.71,60.68c-0.34,0.14-0.68,0.29-1.02,0.43c-0.13,2.98-0.53,6.92-1.54,10.17
		c2.02,4.02,4.01,7.53,5.93,10.58c0.87,1.38,1.98,3.05,3.36,5.04c1.59,2.29,2.76,3.97,3.43,5c3.24,5.01,6.35,9.23,9.22,12.77
		c1.72,0.07,3.52-0.08,5.25-0.34c1.56-0.23,2.94-0.53,4.08-0.81c2.01-0.5,3.2-0.94,3.2-0.94"/>
	<path class="st2" d="M117.17,45.49c-0.19,1.83-0.09,3.66,0.16,5.53c0.29,2.14,0.78,4.33,2.07,6c0.72,0.93,1.69,1.7,2.71,2.3"/>
	<path class="st2" d="M103.08,150.52c0-3.91-3.17-7.09-7.09-7.09c-3.91,0-7.09,3.17-7.09,7.09"/>
	<path class="st2" d="M144.32,128.36c0.95,1.36,1.9,2.73,2.84,4.09c1.34,0.07,2.68,0.15,4.02,0.22c0.74,0.05,1.06,0.28,0.96,1.06
		c-0.06,0.44-0.3,1.23-0.42,1.65c-0.27,0.97-0.59,2.23-0.9,3.8c-0.06,0.33-0.13,0.67-0.19,1.01c-0.23,1.34-0.42,2.68-0.54,4.03
		c-0.1,1.1-0.23,2.73-0.23,4.87c0,1.51,0.07,3.03,0.2,4.58c0.13,1.44,0.32,2.88,0.57,4.33c0.21,1.19,0.46,2.35,0.66,3.18
		c0.13,0.54,0.26,1.03,0.38,1.46c0.15,0.56,0.43,1.54,0.16,2.16c-0.32,0.74-1.33,0.76-1.93,0.79c-1.71,0.1-3.42,0.19-5.13,0.29
		c-1.35,1.42-2.69,2.84-4.04,4.25"/>
	<path class="st2" d="M103.08,150.52c0,10.63,0,21.25,0,31.88c0,0.31-0.25,0.57-0.57,0.57c-4.35,0-8.69,0-13.04,0
		c-0.31,0-0.57-0.25-0.57-0.57c0-10.63,0-21.25,0-31.88"/>
	<path class="st2" d="M145.18,126.17c1.94,0,3.88,0,5.83,0c0.22,0,0.43-0.13,0.52-0.34c1.29-2.89,3.01-5.54,4.89-8.06
		c0.28-0.37,0.01-0.91-0.45-0.91c-2,0-4.01,0-6.01,0"/>
	<path class="st2" d="M122.99,179.21c-0.27,3.28-0.54,6.55-0.82,9.83c-0.03,0.35-0.01,0.84,0.42,0.96c0.33,0.1,0.83-0.04,1.13-0.12
		c2.29-0.57,4.58-1.15,6.88-1.72c1.26-2.98,2.51-5.97,3.77-8.95"/>
	<rect class="st3" width="191.43" height="366.12"/>
</g>
</svg>
