# Blender 3.3.0
# www.blender.org
mtllib status_right.mtl
o status_top_R
v 0.018230 -0.021914 -0.000809
v 0.015543 -0.020015 -0.003661
v 0.017783 -0.018736 -0.002223
v 0.016094 -0.023044 -0.002042
v 0.020636 -0.023851 0.002438
v 0.022489 -0.022454 0.003757
v 0.018679 -0.025080 0.001264
v 0.020243 -0.020576 0.000606
v 0.025337 -0.015408 0.005826
v 0.024225 -0.020896 0.005212
v 0.022113 -0.019038 0.002189
v 0.023817 -0.017311 0.003932
v 0.021700 -0.015448 0.001260
v 0.021249 -0.011568 0.000861
v 0.019507 -0.013640 -0.001217
v 0.019847 -0.017207 -0.000579
v 0.017454 -0.015459 -0.003075
v 0.019391 -0.012321 -0.001293
v 0.018936 -0.013204 -0.001797
v 0.017779 -0.015171 -0.002781
v 0.017562 -0.015537 -0.002963
v 0.017475 -0.015669 -0.003020
v 0.016102 -0.017631 -0.003794
v 0.015355 -0.018624 -0.004138
v 0.014939 -0.019151 -0.004301
v 0.014660 -0.019478 -0.004382
v 0.013566 -0.020759 -0.004700
v 0.020206 -0.010644 -0.000291
v 0.013645 -0.020826 -0.004630
v 0.018807 -0.026268 0.002293
v 0.017992 -0.025434 0.000925
v 0.016196 -0.023634 -0.001605
v 0.015746 -0.023186 -0.002202
v 0.014454 -0.021920 -0.003627
v 0.013430 -0.020918 -0.004739
v 0.013066 -0.020566 -0.005075
v 0.019685 -0.010182 -0.000867
v 0.019280 -0.011050 -0.001367
v 0.018413 -0.012805 -0.002327
v 0.017407 -0.014587 -0.003179
v 0.017042 -0.015189 -0.003441
v 0.016403 -0.016155 -0.003810
v 0.015623 -0.017316 -0.004241
v 0.015248 -0.017836 -0.004408
v 0.014610 -0.018680 -0.004650
v 0.014190 -0.019193 -0.004766
v 0.013178 -0.020429 -0.005044
v 0.019447 -0.026926 0.003415
v 0.026314 -0.016369 0.007166
v 0.025656 -0.017852 0.006454
v 0.025300 -0.018692 0.006042
v 0.024209 -0.020750 0.005160
v 0.024162 -0.020840 0.005121
v 0.024003 -0.021096 0.005026
v 0.022880 -0.022812 0.004420
v 0.021997 -0.023907 0.004134
v 0.020782 -0.025465 0.003702
v 0.020053 -0.026294 0.003521
vn 0.6330 -0.2972 -0.7149
vn 0.5709 -0.2444 -0.7838
vn 0.6461 -0.1765 -0.7426
vn 0.6585 -0.4243 -0.6216
vn 0.6718 -0.3606 -0.6470
vn 0.7221 -0.2864 -0.6297
vn 0.7005 -0.3509 -0.6214
vn 0.6301 -0.4646 -0.6222
vn 0.6094 -0.4305 -0.6658
vn 0.6017 -0.4704 -0.6455
vn 0.5845 -0.4528 -0.6733
vn 0.6329 -0.2972 -0.7149
vn 0.6938 -0.2232 -0.6848
vn 0.5578 -0.3696 -0.7432
vn 0.5538 -0.3943 -0.7333
vn 0.5438 -0.3814 -0.7475
vn 0.5577 -0.3696 -0.7432
vn 0.7248 -0.3006 -0.6199
vn 0.7567 -0.2179 -0.6163
vn 0.7609 -0.2059 -0.6153
vn 0.7418 -0.1458 -0.6545
vn 0.7777 -0.0650 -0.6252
vn 0.7624 -0.2020 -0.6148
vn 0.6937 -0.2232 -0.6848
vn 0.7562 -0.0273 -0.6538
vn 0.7418 -0.1459 -0.6545
vn 0.8012 0.0179 -0.5982
vn 0.7777 -0.0651 -0.6252
vn 0.7751 0.0679 -0.6282
vn 0.7258 -0.0132 -0.6878
vn 0.7079 -0.1045 -0.6985
vn 0.6617 -0.0874 -0.7447
vn 0.6587 -0.0924 -0.7467
vn 0.7155 -0.0150 -0.6984
vn 0.7257 -0.0132 -0.6878
vn 0.6705 -0.0750 -0.7381
vn 0.7703 0.0474 -0.6359
vn 0.7363 0.0121 -0.6766
vn 0.6490 -0.0870 -0.7558
vn 0.6594 -0.0866 -0.7468
vn 0.6239 -0.1160 -0.7729
vn 0.7060 -0.0167 -0.7080
vn 0.6594 -0.0865 -0.7468
vn 0.6660 -0.0702 -0.7427
vn 0.6616 -0.0874 -0.7447
vn 0.7079 -0.1045 -0.6986
vn 0.7614 -0.2077 -0.6141
vn 0.7870 -0.1093 -0.6072
vn 0.7958 -0.0747 -0.6010
vn 0.6039 -0.1605 -0.7807
vn 0.5751 -0.2017 -0.7928
vn 0.5577 -0.2213 -0.8000
vn 0.5752 -0.2017 -0.7928
vn 0.7363 0.0121 -0.6765
vn 0.5915 -0.1558 -0.7911
vn 0.5770 -0.1772 -0.7973
vn 0.5325 -0.2283 -0.8151
vn 0.5460 -0.2340 -0.8044
vn 0.4984 -0.2959 -0.8149
vn 0.4879 -0.2875 -0.8242
vn 0.4922 -0.3034 -0.8159
vn 0.4828 -0.2940 -0.8249
vn 0.5460 -0.2339 -0.8044
vn 0.7458 0.0366 -0.6651
vn 0.5162 -0.3373 -0.7872
vn 0.5005 -0.2975 -0.8130
vn 0.5005 -0.2976 -0.8130
vn 0.4983 -0.2959 -0.8149
vn 0.5845 -0.4529 -0.6733
vn 0.5538 -0.3943 -0.7334
vn 0.5326 -0.2283 -0.8150
vn 0.5503 -0.2086 -0.8085
vn 0.5503 -0.2085 -0.8085
vn 0.5770 -0.1773 -0.7972
vn 0.5915 -0.1559 -0.7911
vn 0.7060 -0.0166 -0.7080
vn 0.8275 -0.0178 -0.5612
vn 0.6300 -0.4646 -0.6222
vn 0.5946 -0.5155 -0.6170
vt 0.564999 0.773664
vt 0.310589 0.807152
vt 0.395595 0.655214
vt 0.486537 0.913451
vt 0.827843 0.745879
vt 0.892720 0.601895
vt 0.761320 0.884141
vt 0.639940 0.626624
vt 0.841315 0.134283
vt 0.955038 0.451272
vt 0.711235 0.471533
vt 0.778618 0.307790
vt 0.548089 0.322356
vt 0.392918 0.146843
vt 0.324524 0.338858
vt 0.474825 0.493751
vt 0.247026 0.519738
vt 0.274521 0.277149
vt 0.269624 0.343848
vt 0.259288 0.491118
vt 0.257268 0.518570
vt 0.256566 0.528438
vt 0.246422 0.677260
vt 0.241543 0.753162
vt 0.238877 0.794032
vt 0.237139 0.819946
vt 0.230838 0.921205
vt 0.284429 0.151167
vt 0.238248 0.920898
vt 0.845820 0.925135
vt 0.738446 0.928888
vt 0.525926 0.933358
vt 0.473736 0.934224
vt 0.337437 0.933865
vt 0.230055 0.933780
vt 0.194132 0.933323
vt 0.230185 0.153329
vt 0.226361 0.217714
vt 0.219328 0.348419
vt 0.212896 0.479971
vt 0.210866 0.524934
vt 0.207899 0.596861
vt 0.203985 0.683532
vt 0.202407 0.722559
vt 0.199770 0.786878
vt 0.198093 0.826747
vt 0.194526 0.922706
vt 0.931910 0.921670
vt 0.956490 0.131265
vt 0.953549 0.237330
vt 0.952517 0.297316
vt 0.947852 0.445427
vt 0.947691 0.451882
vt 0.947054 0.470570
vt 0.942915 0.597415
vt 0.940029 0.682922
vt 0.935852 0.802762
vt 0.933539 0.868859
s 0
usemtl status
f 1/1/1 2/2/2 3/3/3
f 57/57/4 5/5/5 6/6/6 56/56/7
f 58/58/8 7/7/9 5/5/5 57/57/4
f 30/30/10 31/31/11 7/7/9
f 5/5/5 1/1/12 8/8/13
f 7/7/9 4/4/14 1/1/1
f 32/32/15 33/33/16 4/4/17
f 55/55/18 6/6/6 54/54/19
f 53/53/20 11/11/21 12/12/22 52/52/23
f 6/6/6 8/8/24 11/11/21
f 13/13/25 12/12/22 11/11/26
f 9/9/27 12/12/28 13/13/25
f 13/13/25 14/14/29 9/9/27
f 15/15/30 13/13/25 16/16/31
f 8/8/13 3/3/3 16/16/31
f 21/21/32 16/16/31 3/3/3 22/22/33
f 19/19/34 15/15/35 20/20/36
f 28/28/37 14/14/29 15/15/35 18/18/38
f 41/41/39 17/17/40 42/42/41
f 17/17/40 21/21/32 22/22/33
f 39/39/42 19/19/34 20/20/36 17/17/43 40/40/44
f 16/16/31 11/11/21 8/8/13
f 21/21/45 17/17/40 20/20/36
f 13/13/25 15/15/35 14/14/29
f 11/11/26 16/16/46 13/13/25
f 53/53/20 10/10/47 54/54/19
f 51/51/48 12/12/22 9/9/27 50/50/49
f 1/1/1 5/5/5 7/7/9
f 8/8/13 6/6/6 5/5/5
f 23/23/50 3/3/3 2/2/2 24/24/51
f 2/2/2 1/1/12 4/4/14
f 3/3/3 8/8/13 1/1/12
f 2/2/2 25/25/52 24/24/53
f 15/15/30 19/19/34 18/18/54
f 43/43/55 23/23/50 24/24/51 44/44/56
f 3/3/3 23/23/50 22/22/33
f 46/46/57 26/26/58 27/27/59 47/47/60
f 47/47/60 27/27/59 35/35/61 36/36/62
f 2/2/2 26/26/63 25/25/52
f 16/16/31 21/21/45 20/20/36 15/15/35
f 37/37/37 28/28/37 18/18/38 38/38/64
f 34/34/65 4/4/17 33/33/16
f 26/26/58 2/2/2 29/29/66 27/27/59
f 2/2/2 4/4/14 29/29/67
f 27/27/68 29/29/66 35/35/61
f 4/4/14 34/34/65 35/35/61 29/29/67
f 4/4/14 7/7/9 31/31/69 32/32/70
f 26/26/58 46/46/71 45/45/72 25/25/52
f 25/25/52 45/45/73 44/44/74 24/24/53
f 23/23/50 43/43/75 42/42/41 17/17/40 22/22/33
f 17/17/40 41/41/39 40/40/44
f 19/19/34 39/39/76 38/38/64 18/18/54
f 6/6/6 55/55/18 56/56/7
f 11/11/21 53/53/20 54/54/19 6/6/6
f 10/10/47 53/53/20 52/52/23
f 12/12/22 51/51/48 52/52/23
f 9/9/27 49/49/77 50/50/49
f 7/7/9 58/58/78 48/48/79 30/30/10
